<svg width="25" height="25" viewBox="0 0 25 25" fill="none" xmlns="http://www.w3.org/2000/svg">
<g clip-path="url(#clip0_154_3833)">
<path d="M12.2607 0.132324L11.7817 2.31418L12.2607 4.71108C16.4966 4.71108 19.9428 8.15724 19.9428 12.3932C19.9428 16.6291 16.4966 20.0753 12.2607 20.0753L11.7817 22.0416L12.2607 24.654C19.0322 24.654 24.5215 19.1647 24.5215 12.3932C24.5215 5.62169 19.0322 0.132324 12.2607 0.132324Z" fill="#1A488E"/>
<path d="M16.8903 12.3932C16.8903 9.8363 14.8175 7.76355 12.2607 7.76355L11.7817 12.3932L12.2607 17.0228C14.8175 17.0228 16.8903 14.95 16.8903 12.3932Z" fill="#F7B115"/>
<path d="M4.57876 20.0753V12.3932C4.57876 8.15724 8.02492 4.71108 12.2609 4.71108V0.132324C5.48936 0.132324 0 5.62169 0 12.3932V24.654H12.2609V20.0753H4.57876Z" fill="#385E97"/>
<path d="M7.63135 12.3932C7.63135 14.95 9.7041 17.0228 12.261 17.0228V7.76355C9.7041 7.76355 7.63135 9.8363 7.63135 12.3932Z" fill="#FFD169"/>
</g>
<defs>
<clipPath id="clip0_154_3833">
<rect width="24.5217" height="24.5217" fill="white" transform="translate(0 0.132324)"/>
</clipPath>
</defs>
</svg>
